<svg width="709" height="506" viewBox="0 0 709 506" fill="none" xmlns="http://www.w3.org/2000/svg">
<g id="illustration-mockups">
<g id="desktop">
<g id="Vector" filter="url(#filter0_d_1_7)">
<path d="M650.937 7H20.701C13.1341 7 7 13.1341 7 20.701V404.132C7 411.699 13.1341 417.833 20.701 417.833H650.937C658.504 417.833 664.638 411.699 664.638 404.132V20.701C664.638 13.1341 658.504 7 650.937 7Z" fill="black"/>
</g>
<path id="Vector_2" d="M650.937 7H20.701C13.1341 7 7 13.1341 7 20.701V404.132C7 411.699 13.1341 417.833 20.701 417.833H650.937C658.504 417.833 664.638 411.699 664.638 404.132V20.701C664.638 13.1341 658.504 7 650.937 7Z" fill="white"/>
<g id="Vector_3" filter="url(#filter1_d_1_7)">
<path d="M20.7 7H650.937C658.504 7 664.637 13.134 664.637 20.7V50.822H7V20.701C7 13.134 13.134 7 20.7 7Z" fill="black"/>
</g>
<path id="Vector_4" d="M20.7 7H650.937C658.504 7 664.637 13.134 664.637 20.7V50.822H7V20.701C7 13.134 13.134 7 20.7 7Z" fill="#00252E"/>
<path id="Vector_5" d="M189.906 20.694H59.748C57.8564 20.694 56.323 22.2274 56.323 24.119V33.702C56.323 35.5936 57.8564 37.127 59.748 37.127H189.906C191.798 37.127 193.331 35.5936 193.331 33.702V24.119C193.331 22.2274 191.798 20.694 189.906 20.694Z" fill="#E1E8EE"/>
<g id="Group">
<path id="Vector_6" d="M619.426 22.064H600.243C599.487 22.064 598.874 22.6769 598.874 23.433V23.434C598.874 24.1901 599.487 24.803 600.243 24.803H619.426C620.182 24.803 620.795 24.1901 620.795 23.434V23.433C620.795 22.6769 620.182 22.064 619.426 22.064Z" fill="#D8D8D8"/>
<path id="Vector_7" d="M619.426 27.542H600.243C599.487 27.542 598.874 28.1549 598.874 28.911V28.912C598.874 29.6681 599.487 30.281 600.243 30.281H619.426C620.182 30.281 620.795 29.6681 620.795 28.912V28.911C620.795 28.1549 620.182 27.542 619.426 27.542Z" fill="#D8D8D8"/>
<path id="Vector_8" d="M619.426 33.02H600.243C599.487 33.02 598.874 33.6329 598.874 34.389V34.39C598.874 35.1461 599.487 35.759 600.243 35.759H619.426C620.182 35.759 620.795 35.1461 620.795 34.39V34.389C620.795 33.6329 620.182 33.02 619.426 33.02Z" fill="#D8D8D8"/>
</g>
<g id="desktop__item">
<path id="Vector_9" d="M89.205 167.226C107.365 167.226 122.087 152.511 122.087 134.359C122.087 116.207 107.365 101.492 89.205 101.492C71.0448 101.492 56.323 116.207 56.323 134.359C56.323 152.511 71.0448 167.226 89.205 167.226Z" fill="url(#paint0_linear_1_7)"/>
<g id="Group_2">
<path id="Vector_10" d="M237.174 109.709H162.504C161.369 109.709 160.449 110.629 160.449 111.764V118.61C160.449 119.745 161.369 120.665 162.504 120.665H237.174C238.309 120.665 239.229 119.745 239.229 118.61V111.764C239.229 110.629 238.309 109.709 237.174 109.709Z" fill="#E1E8EE"/>
<path id="Vector_11" d="M432.41 131.62H162.504C161.369 131.62 160.449 132.54 160.449 133.675V135.043C160.449 136.178 161.369 137.098 162.504 137.098H432.41C433.545 137.098 434.465 136.178 434.465 135.043V133.675C434.465 132.54 433.545 131.62 432.41 131.62Z" fill="#E1E8EE"/>
<path id="Vector_12" d="M409.575 142.576H162.504C161.369 142.576 160.449 143.496 160.449 144.631V145.999C160.449 147.134 161.369 148.054 162.504 148.054H409.575C410.71 148.054 411.63 147.134 411.63 145.999V144.631C411.63 143.496 410.71 142.576 409.575 142.576Z" fill="#E1E8EE"/>
<path id="Vector_13" d="M386.74 153.531H162.504C161.369 153.531 160.449 154.451 160.449 155.586V156.954C160.449 158.089 161.369 159.009 162.504 159.009H386.74C387.875 159.009 388.795 158.089 388.795 156.954V155.586C388.795 154.451 387.875 153.531 386.74 153.531Z" fill="#E1E8EE"/>
</g>
<g id="Group_3">
<path id="Vector_14" d="M475.567 142.576C480.107 142.576 483.787 138.897 483.787 134.359C483.787 129.821 480.107 126.142 475.567 126.142C471.027 126.142 467.347 129.821 467.347 134.359C467.347 138.897 471.027 142.576 475.567 142.576Z" fill="#A7B9C8"/>
<path id="Vector_15" d="M519.41 142.576C523.95 142.576 527.63 138.897 527.63 134.359C527.63 129.821 523.95 126.142 519.41 126.142C514.87 126.142 511.19 129.821 511.19 134.359C511.19 138.897 514.87 142.576 519.41 142.576Z" fill="#A7B9C8"/>
<path id="Vector_16" d="M497.489 142.576C502.029 142.576 505.709 138.897 505.709 134.359C505.709 129.821 502.029 126.142 497.489 126.142C492.949 126.142 489.269 129.821 489.269 134.359C489.269 138.897 492.949 142.576 497.489 142.576Z" fill="#A7B9C8"/>
<path id="Vector_17" d="M541.331 142.576C545.871 142.576 549.551 138.897 549.551 134.359C549.551 129.821 545.871 126.142 541.331 126.142C536.791 126.142 533.111 129.821 533.111 134.359C533.111 138.897 536.791 142.576 541.331 142.576Z" fill="#A7B9C8"/>
<path id="Vector_18" d="M563.253 142.576C567.793 142.576 571.473 138.897 571.473 134.359C571.473 129.821 567.793 126.142 563.253 126.142C558.713 126.142 555.033 129.821 555.033 134.359C555.033 138.897 558.713 142.576 563.253 142.576Z" fill="#A7B9C8"/>
</g>
</g>
<g id="desktop__item_2">
<path id="Vector_19" d="M87.15 256.24C104.175 256.24 117.977 242.445 117.977 225.427C117.977 208.409 104.175 194.614 87.15 194.614C70.1247 194.614 56.323 208.409 56.323 225.427C56.323 242.445 70.1247 256.24 87.15 256.24Z" fill="url(#paint1_linear_1_7)"/>
<g id="Group_4">
<path id="Vector_20" d="M235.118 200.776H160.448C159.313 200.776 158.393 201.696 158.393 202.831V209.677C158.393 210.812 159.313 211.732 160.448 211.732H235.118C236.253 211.732 237.173 210.812 237.173 209.677V202.831C237.173 201.696 236.253 200.776 235.118 200.776Z" fill="#E1E8EE"/>
<path id="Vector_21" d="M430.354 222.687H160.448C159.313 222.687 158.393 223.607 158.393 224.742V226.11C158.393 227.245 159.313 228.165 160.448 228.165H430.354C431.489 228.165 432.409 227.245 432.409 226.11V224.742C432.409 223.607 431.489 222.687 430.354 222.687Z" fill="#E1E8EE"/>
<path id="Vector_22" d="M407.519 233.643H160.448C159.313 233.643 158.393 234.563 158.393 235.698V237.066C158.393 238.201 159.313 239.121 160.448 239.121H407.519C408.654 239.121 409.574 238.201 409.574 237.066V235.698C409.574 234.563 408.654 233.643 407.519 233.643Z" fill="#E1E8EE"/>
<path id="Vector_23" d="M384.684 244.598H160.448C159.313 244.598 158.393 245.518 158.393 246.653V248.021C158.393 249.156 159.313 250.076 160.448 250.076H384.684C385.819 250.076 386.739 249.156 386.739 248.021V246.653C386.739 245.518 385.819 244.598 384.684 244.598Z" fill="#E1E8EE"/>
</g>
<g id="Group_5">
<path id="Vector_24" d="M473.512 233.644C478.052 233.644 481.732 229.965 481.732 225.427C481.732 220.889 478.052 217.21 473.512 217.21C468.972 217.21 465.292 220.889 465.292 225.427C465.292 229.965 468.972 233.644 473.512 233.644Z" fill="#A7B9C8"/>
<path id="Vector_25" d="M517.355 233.644C521.895 233.644 525.575 229.965 525.575 225.427C525.575 220.889 521.895 217.21 517.355 217.21C512.815 217.21 509.135 220.889 509.135 225.427C509.135 229.965 512.815 233.644 517.355 233.644Z" fill="#A7B9C8"/>
<path id="Vector_26" d="M495.434 233.644C499.974 233.644 503.654 229.965 503.654 225.427C503.654 220.889 499.974 217.21 495.434 217.21C490.894 217.21 487.214 220.889 487.214 225.427C487.214 229.965 490.894 233.644 495.434 233.644Z" fill="#A7B9C8"/>
</g>
</g>
<g id="desktop__item_3">
<path id="Vector_27" d="M87.15 354.156C104.175 354.156 117.977 340.361 117.977 323.343C117.977 306.325 104.175 292.53 87.15 292.53C70.1247 292.53 56.323 306.325 56.323 323.343C56.323 340.361 70.1247 354.156 87.15 354.156Z" fill="url(#paint2_linear_1_7)"/>
<g id="Group_6">
<path id="Vector_28" d="M235.118 298.692H160.448C159.313 298.692 158.393 299.612 158.393 300.747V307.593C158.393 308.728 159.313 309.648 160.448 309.648H235.118C236.253 309.648 237.173 308.728 237.173 307.593V300.747C237.173 299.612 236.253 298.692 235.118 298.692Z" fill="#E1E8EE"/>
<path id="Vector_29" d="M430.354 320.603H160.448C159.313 320.603 158.393 321.523 158.393 322.658V324.026C158.393 325.161 159.313 326.081 160.448 326.081H430.354C431.489 326.081 432.409 325.161 432.409 324.026V322.658C432.409 321.523 431.489 320.603 430.354 320.603Z" fill="#E1E8EE"/>
<path id="Vector_30" d="M407.519 331.559H160.448C159.313 331.559 158.393 332.479 158.393 333.614V334.982C158.393 336.117 159.313 337.037 160.448 337.037H407.519C408.654 337.037 409.574 336.117 409.574 334.982V333.614C409.574 332.479 408.654 331.559 407.519 331.559Z" fill="#E1E8EE"/>
<path id="Vector_31" d="M384.684 342.514H160.448C159.313 342.514 158.393 343.434 158.393 344.569V345.937C158.393 347.072 159.313 347.992 160.448 347.992H384.684C385.819 347.992 386.739 347.072 386.739 345.937V344.569C386.739 343.434 385.819 342.514 384.684 342.514Z" fill="#E1E8EE"/>
</g>
<g id="Group_7">
<path id="Vector_32" d="M473.512 331.56C478.052 331.56 481.732 327.881 481.732 323.343C481.732 318.805 478.052 315.126 473.512 315.126C468.972 315.126 465.292 318.805 465.292 323.343C465.292 327.881 468.972 331.56 473.512 331.56Z" fill="#A7B9C8"/>
<path id="Vector_33" d="M517.355 331.56C521.895 331.56 525.575 327.881 525.575 323.343C525.575 318.805 521.895 315.126 517.355 315.126C512.815 315.126 509.135 318.805 509.135 323.343C509.135 327.881 512.815 331.56 517.355 331.56Z" fill="#A7B9C8"/>
<path id="Vector_34" d="M495.434 331.56C499.974 331.56 503.654 327.881 503.654 323.343C503.654 318.805 499.974 315.126 495.434 315.126C490.894 315.126 487.214 318.805 487.214 323.343C487.214 327.881 490.894 331.56 495.434 331.56Z" fill="#A7B9C8"/>
<path id="Vector_35" d="M539.276 331.56C543.816 331.56 547.496 327.881 547.496 323.343C547.496 318.805 543.816 315.126 539.276 315.126C534.736 315.126 531.056 318.805 531.056 323.343C531.056 327.881 534.736 331.56 539.276 331.56Z" fill="#A7B9C8"/>
</g>
</g>
</g>
<g id="mobile">
<g id="Group_8">
<g id="Vector_36" filter="url(#filter2_d_1_7)">
<path d="M495.478 149.422H691.308C697.765 149.422 703 154.656 703 161.113V186.817H483.787V161.113C483.787 154.656 489.021 149.422 495.478 149.422Z" fill="black"/>
</g>
</g>
<g id="Group_9">
<g id="Vector_37" filter="url(#filter3_d_1_7)">
<path d="M495.478 149.422H691.308C697.765 149.422 703 154.656 703 161.113V488.308C703 494.765 697.765 500 691.308 500H495.478C489.021 500 483.787 494.765 483.787 488.308V161.113C483.787 154.656 489.021 149.422 495.478 149.422Z" fill="black"/>
</g>
<path id="Vector_38" d="M495.478 149.422H691.308C697.765 149.422 703 154.656 703 161.113V488.308C703 494.765 697.765 500 691.308 500H495.478C489.021 500 483.787 494.765 483.787 488.308V161.113C483.787 154.656 489.021 149.422 495.478 149.422Z" fill="white"/>
</g>
<path id="Vector_39" d="M495.478 149.422H691.308C697.765 149.422 703 154.656 703 161.113V186.817H483.787V161.113C483.787 154.656 489.021 149.422 495.478 149.422Z" fill="#00252E"/>
<g id="Group_10">
<path id="Vector_40" d="M574.121 162.277H508.723C507.109 162.277 505.8 163.586 505.8 165.2V173.377C505.8 174.991 507.109 176.3 508.723 176.3H574.121C575.735 176.3 577.044 174.991 577.044 173.377V165.2C577.044 163.586 575.735 162.277 574.121 162.277Z" fill="#E1E8EE"/>
<g id="Group_11">
<path id="Vector_41" d="M678.448 163.446H662.08C661.434 163.446 660.911 163.969 660.911 164.614C660.911 165.26 661.434 165.783 662.08 165.783H678.448C679.094 165.783 679.617 165.26 679.617 164.614C679.617 163.969 679.094 163.446 678.448 163.446Z" fill="#D8D8D8"/>
<path id="Vector_42" d="M678.448 168.12H662.08C661.434 168.12 660.911 168.643 660.911 169.288C660.911 169.934 661.434 170.457 662.08 170.457H678.448C679.094 170.457 679.617 169.934 679.617 169.288C679.617 168.643 679.094 168.12 678.448 168.12Z" fill="#D8D8D8"/>
<path id="Vector_43" d="M678.448 172.795H662.08C661.434 172.795 660.911 173.318 660.911 173.963C660.911 174.609 661.434 175.132 662.08 175.132H678.448C679.094 175.132 679.617 174.609 679.617 173.963C679.617 173.318 679.094 172.795 678.448 172.795Z" fill="#D8D8D8"/>
</g>
</g>
<g id="mobile__item">
<path id="Vector_44" d="M515.985 243.914C521.66 243.914 526.261 239.316 526.261 233.643C526.261 227.97 521.66 223.372 515.985 223.372C510.31 223.372 505.709 227.97 505.709 233.643C505.709 239.316 510.31 243.914 515.985 243.914Z" fill="url(#paint3_linear_1_7)"/>
<g id="Group_12">
<path id="Vector_45" d="M575.981 225.426H537.851C537.503 225.426 537.221 225.708 537.221 226.056V228.448C537.221 228.796 537.503 229.078 537.851 229.078H575.981C576.329 229.078 576.611 228.796 576.611 228.448V226.056C576.611 225.708 576.329 225.426 575.981 225.426Z" fill="#E1E8EE"/>
<path id="Vector_46" d="M673.599 232.73H537.851C537.503 232.73 537.221 233.012 537.221 233.36V233.926C537.221 234.274 537.503 234.556 537.851 234.556H673.599C673.947 234.556 674.229 234.274 674.229 233.926V233.36C674.229 233.012 673.947 232.73 673.599 232.73Z" fill="#E1E8EE"/>
<path id="Vector_47" d="M662.182 236.382H537.851C537.503 236.382 537.221 236.664 537.221 237.012V237.578C537.221 237.926 537.503 238.208 537.851 238.208H662.182C662.53 238.208 662.812 237.926 662.812 237.578V237.012C662.812 236.664 662.53 236.382 662.182 236.382Z" fill="#E1E8EE"/>
<path id="Vector_48" d="M650.764 240.033H537.851C537.503 240.033 537.221 240.315 537.221 240.663V241.229C537.221 241.577 537.503 241.859 537.851 241.859H650.764C651.112 241.859 651.394 241.577 651.394 241.229V240.663C651.394 240.315 651.112 240.033 650.764 240.033Z" fill="#E1E8EE"/>
</g>
</g>
<g id="mobile__item_2">
<path id="Vector_49" d="M515.985 338.406C521.66 338.406 526.261 333.808 526.261 328.135C526.261 322.462 521.66 317.864 515.985 317.864C510.31 317.864 505.709 322.462 505.709 328.135C505.709 333.808 510.31 338.406 515.985 338.406Z" fill="url(#paint4_linear_1_7)"/>
<g id="Group_13">
<path id="Vector_50" d="M575.981 319.918H537.851C537.503 319.918 537.221 320.2 537.221 320.548V322.94C537.221 323.288 537.503 323.57 537.851 323.57H575.981C576.329 323.57 576.611 323.288 576.611 322.94V320.548C576.611 320.2 576.329 319.918 575.981 319.918Z" fill="#E1E8EE"/>
<path id="Vector_51" d="M673.599 327.222H537.851C537.503 327.222 537.221 327.504 537.221 327.852V328.418C537.221 328.766 537.503 329.048 537.851 329.048H673.599C673.947 329.048 674.229 328.766 674.229 328.418V327.852C674.229 327.504 673.947 327.222 673.599 327.222Z" fill="#E1E8EE"/>
<path id="Vector_52" d="M662.182 330.874H537.851C537.503 330.874 537.221 331.156 537.221 331.504V332.07C537.221 332.418 537.503 332.7 537.851 332.7H662.182C662.53 332.7 662.812 332.418 662.812 332.07V331.504C662.812 331.156 662.53 330.874 662.182 330.874Z" fill="#E1E8EE"/>
<path id="Vector_53" d="M650.764 334.525H537.851C537.503 334.525 537.221 334.807 537.221 335.155V335.721C537.221 336.069 537.503 336.351 537.851 336.351H650.764C651.112 336.351 651.394 336.069 651.394 335.721V335.155C651.394 334.807 651.112 334.525 650.764 334.525Z" fill="#E1E8EE"/>
</g>
</g>
<g id="mobile__item_3">
<g id="Group_14">
<path id="Vector_54" d="M575.981 256.924H537.851C537.503 256.924 537.221 257.206 537.221 257.554V259.946C537.221 260.294 537.503 260.576 537.851 260.576H575.981C576.329 260.576 576.611 260.294 576.611 259.946V257.554C576.611 257.206 576.329 256.924 575.981 256.924Z" fill="#E1E8EE"/>
<path id="Vector_55" d="M673.599 264.228H537.851C537.503 264.228 537.221 264.51 537.221 264.858V265.424C537.221 265.772 537.503 266.054 537.851 266.054H673.599C673.947 266.054 674.229 265.772 674.229 265.424V264.858C674.229 264.51 673.947 264.228 673.599 264.228Z" fill="#E1E8EE"/>
<path id="Vector_56" d="M662.182 267.88H537.851C537.503 267.88 537.221 268.162 537.221 268.51V269.076C537.221 269.424 537.503 269.706 537.851 269.706H662.182C662.53 269.706 662.812 269.424 662.812 269.076V268.51C662.812 268.162 662.53 267.88 662.182 267.88Z" fill="#E1E8EE"/>
<path id="Vector_57" d="M650.764 271.531H537.851C537.503 271.531 537.221 271.813 537.221 272.161V272.727C537.221 273.075 537.503 273.357 537.851 273.357H650.764C651.112 273.357 651.394 273.075 651.394 272.727V272.161C651.394 271.813 651.112 271.531 650.764 271.531Z" fill="#E1E8EE"/>
</g>
<path id="Vector_58" d="M515.985 275.412C521.66 275.412 526.261 270.814 526.261 265.141C526.261 259.468 521.66 254.87 515.985 254.87C510.31 254.87 505.709 259.468 505.709 265.141C505.709 270.814 510.31 275.412 515.985 275.412Z" fill="url(#paint5_linear_1_7)"/>
</g>
<g id="mobile__item_4">
<g id="Group_15">
<path id="Vector_59" d="M575.981 351.415H537.851C537.503 351.415 537.221 351.697 537.221 352.045V354.437C537.221 354.785 537.503 355.067 537.851 355.067H575.981C576.329 355.067 576.611 354.785 576.611 354.437V352.045C576.611 351.697 576.329 351.415 575.981 351.415Z" fill="#E1E8EE"/>
<path id="Vector_60" d="M673.599 358.719H537.851C537.503 358.719 537.221 359.001 537.221 359.349V359.915C537.221 360.263 537.503 360.545 537.851 360.545H673.599C673.947 360.545 674.229 360.263 674.229 359.915V359.349C674.229 359.001 673.947 358.719 673.599 358.719Z" fill="#E1E8EE"/>
<path id="Vector_61" d="M662.182 362.371H537.851C537.503 362.371 537.221 362.653 537.221 363.001V363.567C537.221 363.915 537.503 364.197 537.851 364.197H662.182C662.53 364.197 662.812 363.915 662.812 363.567V363.001C662.812 362.653 662.53 362.371 662.182 362.371Z" fill="#E1E8EE"/>
<path id="Vector_62" d="M650.764 366.022H537.851C537.503 366.022 537.221 366.304 537.221 366.652V367.218C537.221 367.566 537.503 367.848 537.851 367.848H650.764C651.112 367.848 651.394 367.566 651.394 367.218V366.652C651.394 366.304 651.112 366.022 650.764 366.022Z" fill="#E1E8EE"/>
</g>
<path id="Vector_63" d="M515.985 369.903C521.66 369.903 526.261 365.305 526.261 359.632C526.261 353.959 521.66 349.361 515.985 349.361C510.31 349.361 505.709 353.959 505.709 359.632C505.709 365.305 510.31 369.903 515.985 369.903Z" fill="url(#paint6_linear_1_7)"/>
</g>
<g id="mobile__item_5">
<g id="Group_16">
<path id="Vector_64" d="M575.981 288.421H537.851C537.503 288.421 537.221 288.703 537.221 289.051V291.443C537.221 291.791 537.503 292.073 537.851 292.073H575.981C576.329 292.073 576.611 291.791 576.611 291.443V289.051C576.611 288.703 576.329 288.421 575.981 288.421Z" fill="#E1E8EE"/>
<path id="Vector_65" d="M673.599 295.725H537.851C537.503 295.725 537.221 296.007 537.221 296.355V296.921C537.221 297.269 537.503 297.551 537.851 297.551H673.599C673.947 297.551 674.229 297.269 674.229 296.921V296.355C674.229 296.007 673.947 295.725 673.599 295.725Z" fill="#E1E8EE"/>
<path id="Vector_66" d="M662.182 299.377H537.851C537.503 299.377 537.221 299.659 537.221 300.007V300.573C537.221 300.921 537.503 301.203 537.851 301.203H662.182C662.53 301.203 662.812 300.921 662.812 300.573V300.007C662.812 299.659 662.53 299.377 662.182 299.377Z" fill="#E1E8EE"/>
<path id="Vector_67" d="M650.764 303.028H537.851C537.503 303.028 537.221 303.31 537.221 303.658V304.224C537.221 304.572 537.503 304.854 537.851 304.854H650.764C651.112 304.854 651.394 304.572 651.394 304.224V303.658C651.394 303.31 651.112 303.028 650.764 303.028Z" fill="#E1E8EE"/>
</g>
<path id="Vector_68" d="M515.985 306.909C521.66 306.909 526.261 302.311 526.261 296.638C526.261 290.965 521.66 286.367 515.985 286.367C510.31 286.367 505.709 290.965 505.709 296.638C505.709 302.311 510.31 306.909 515.985 306.909Z" fill="url(#paint7_linear_1_7)"/>
</g>
<g id="mobile__item_6">
<g id="Group_17">
<path id="Vector_69" d="M575.981 382.912H537.851C537.503 382.912 537.221 383.194 537.221 383.542V385.934C537.221 386.282 537.503 386.564 537.851 386.564H575.981C576.329 386.564 576.611 386.282 576.611 385.934V383.542C576.611 383.194 576.329 382.912 575.981 382.912Z" fill="#E1E8EE"/>
<path id="Vector_70" d="M673.599 390.216H537.851C537.503 390.216 537.221 390.498 537.221 390.846V391.412C537.221 391.76 537.503 392.042 537.851 392.042H673.599C673.947 392.042 674.229 391.76 674.229 391.412V390.846C674.229 390.498 673.947 390.216 673.599 390.216Z" fill="#E1E8EE"/>
<path id="Vector_71" d="M662.182 393.868H537.851C537.503 393.868 537.221 394.15 537.221 394.498V395.064C537.221 395.412 537.503 395.694 537.851 395.694H662.182C662.53 395.694 662.812 395.412 662.812 395.064V394.498C662.812 394.15 662.53 393.868 662.182 393.868Z" fill="#E1E8EE"/>
<path id="Vector_72" d="M650.764 397.519H537.851C537.503 397.519 537.221 397.801 537.221 398.149V398.715C537.221 399.063 537.503 399.345 537.851 399.345H650.764C651.112 399.345 651.394 399.063 651.394 398.715V398.149C651.394 397.801 651.112 397.519 650.764 397.519Z" fill="#E1E8EE"/>
</g>
<path id="Vector_73" d="M515.985 401.4C521.66 401.4 526.261 396.802 526.261 391.129C526.261 385.456 521.66 380.858 515.985 380.858C510.31 380.858 505.709 385.456 505.709 391.129C505.709 396.802 510.31 401.4 515.985 401.4Z" fill="url(#paint8_linear_1_7)"/>
</g>
<g id="mobile__item_7">
<path id="Vector_74" d="M515.985 432.898C521.66 432.898 526.261 428.3 526.261 422.627C526.261 416.954 521.66 412.356 515.985 412.356C510.31 412.356 505.709 416.954 505.709 422.627C505.709 428.3 510.31 432.898 515.985 432.898Z" fill="url(#paint9_linear_1_7)"/>
<g id="Group_18">
<path id="Vector_75" d="M575.981 414.41H537.851C537.503 414.41 537.221 414.692 537.221 415.04V417.432C537.221 417.78 537.503 418.062 537.851 418.062H575.981C576.329 418.062 576.611 417.78 576.611 417.432V415.04C576.611 414.692 576.329 414.41 575.981 414.41Z" fill="#E1E8EE"/>
<path id="Vector_76" d="M673.599 421.714H537.851C537.503 421.714 537.221 421.996 537.221 422.344V422.91C537.221 423.258 537.503 423.54 537.851 423.54H673.599C673.947 423.54 674.229 423.258 674.229 422.91V422.344C674.229 421.996 673.947 421.714 673.599 421.714Z" fill="#E1E8EE"/>
<path id="Vector_77" d="M662.182 425.366H537.851C537.503 425.366 537.221 425.648 537.221 425.996V426.562C537.221 426.91 537.503 427.192 537.851 427.192H662.182C662.53 427.192 662.812 426.91 662.812 426.562V425.996C662.812 425.648 662.53 425.366 662.182 425.366Z" fill="#E1E8EE"/>
<path id="Vector_78" d="M650.764 429.017H537.851C537.503 429.017 537.221 429.299 537.221 429.647V430.213C537.221 430.561 537.503 430.843 537.851 430.843H650.764C651.112 430.843 651.394 430.561 651.394 430.213V429.647C651.394 429.299 651.112 429.017 650.764 429.017Z" fill="#E1E8EE"/>
</g>
</g>
<g id="mobile__item_8">
<g id="Group_19">
<path id="Vector_79" d="M575.981 445.907H537.851C537.503 445.907 537.221 446.189 537.221 446.537V448.929C537.221 449.277 537.503 449.559 537.851 449.559H575.981C576.329 449.559 576.611 449.277 576.611 448.929V446.537C576.611 446.189 576.329 445.907 575.981 445.907Z" fill="#E1E8EE"/>
<path id="Vector_80" d="M673.599 453.211H537.851C537.503 453.211 537.221 453.493 537.221 453.841V454.407C537.221 454.755 537.503 455.037 537.851 455.037H673.599C673.947 455.037 674.229 454.755 674.229 454.407V453.841C674.229 453.493 673.947 453.211 673.599 453.211Z" fill="#E1E8EE"/>
<path id="Vector_81" d="M662.182 456.863H537.851C537.503 456.863 537.221 457.145 537.221 457.493V458.059C537.221 458.407 537.503 458.689 537.851 458.689H662.182C662.53 458.689 662.812 458.407 662.812 458.059V457.493C662.812 457.145 662.53 456.863 662.182 456.863Z" fill="#E1E8EE"/>
<path id="Vector_82" d="M650.764 460.514H537.851C537.503 460.514 537.221 460.796 537.221 461.144V461.71C537.221 462.058 537.503 462.34 537.851 462.34H650.764C651.112 462.34 651.394 462.058 651.394 461.71V461.144C651.394 460.796 651.112 460.514 650.764 460.514Z" fill="#E1E8EE"/>
</g>
<path id="Vector_83" d="M515.985 464.395C521.66 464.395 526.261 459.797 526.261 454.124C526.261 448.451 521.66 443.853 515.985 443.853C510.31 443.853 505.709 448.451 505.709 454.124C505.709 459.797 510.31 464.395 515.985 464.395Z" fill="url(#paint10_linear_1_7)"/>
</g>
</g>
</g>
<defs>
<filter id="filter0_d_1_7" x="0" y="0" width="671.638" height="424.833" filterUnits="userSpaceOnUse" color-interpolation-filters="sRGB">
<feFlood flood-opacity="0" result="BackgroundImageFix"/>
<feColorMatrix in="SourceAlpha" type="matrix" values="0 0 0 0 0 0 0 0 0 0 0 0 0 0 0 0 0 0 127 0" result="hardAlpha"/>
<feOffset/>
<feGaussianBlur stdDeviation="3.5"/>
<feColorMatrix type="matrix" values="0 0 0 0 0 0 0 0 0 0.145098 0 0 0 0 0.180392 0 0 0 0.181839 0"/>
<feBlend mode="normal" in2="BackgroundImageFix" result="effect1_dropShadow_1_7"/>
<feBlend mode="normal" in="SourceGraphic" in2="effect1_dropShadow_1_7" result="shape"/>
</filter>
<filter id="filter1_d_1_7" x="0" y="0" width="671.637" height="57.822" filterUnits="userSpaceOnUse" color-interpolation-filters="sRGB">
<feFlood flood-opacity="0" result="BackgroundImageFix"/>
<feColorMatrix in="SourceAlpha" type="matrix" values="0 0 0 0 0 0 0 0 0 0 0 0 0 0 0 0 0 0 127 0" result="hardAlpha"/>
<feOffset/>
<feGaussianBlur stdDeviation="3.5"/>
<feColorMatrix type="matrix" values="0 0 0 0 0 0 0 0 0 0.145098 0 0 0 0 0.180392 0 0 0 0.181839 0"/>
<feBlend mode="normal" in2="BackgroundImageFix" result="effect1_dropShadow_1_7"/>
<feBlend mode="normal" in="SourceGraphic" in2="effect1_dropShadow_1_7" result="shape"/>
</filter>
<filter id="filter2_d_1_7" x="477.787" y="143.422" width="231.213" height="49.395" filterUnits="userSpaceOnUse" color-interpolation-filters="sRGB">
<feFlood flood-opacity="0" result="BackgroundImageFix"/>
<feColorMatrix in="SourceAlpha" type="matrix" values="0 0 0 0 0 0 0 0 0 0 0 0 0 0 0 0 0 0 127 0" result="hardAlpha"/>
<feOffset/>
<feGaussianBlur stdDeviation="3"/>
<feColorMatrix type="matrix" values="0 0 0 0 0 0 0 0 0 0.145098 0 0 0 0 0.180392 0 0 0 0.181839 0"/>
<feBlend mode="normal" in2="BackgroundImageFix" result="effect1_dropShadow_1_7"/>
<feBlend mode="normal" in="SourceGraphic" in2="effect1_dropShadow_1_7" result="shape"/>
</filter>
<filter id="filter3_d_1_7" x="477.787" y="143.422" width="231.213" height="362.578" filterUnits="userSpaceOnUse" color-interpolation-filters="sRGB">
<feFlood flood-opacity="0" result="BackgroundImageFix"/>
<feColorMatrix in="SourceAlpha" type="matrix" values="0 0 0 0 0 0 0 0 0 0 0 0 0 0 0 0 0 0 127 0" result="hardAlpha"/>
<feOffset/>
<feGaussianBlur stdDeviation="3"/>
<feColorMatrix type="matrix" values="0 0 0 0 0 0 0 0 0 0.145098 0 0 0 0 0.180392 0 0 0 0.181839 0"/>
<feBlend mode="normal" in2="BackgroundImageFix" result="effect1_dropShadow_1_7"/>
<feBlend mode="normal" in="SourceGraphic" in2="effect1_dropShadow_1_7" result="shape"/>
</filter>
<linearGradient id="paint0_linear_1_7" x1="1030.35" y1="-1368.45" x2="5051.03" y2="7951.86" gradientUnits="userSpaceOnUse">
<stop stop-color="#FAD961"/>
<stop offset="1" stop-color="#FF52C1"/>
</linearGradient>
<linearGradient id="paint1_linear_1_7" x1="3139.02" y1="194.614" x2="3139.02" y2="6357.21" gradientUnits="userSpaceOnUse">
<stop stop-color="#00C7FA"/>
<stop offset="1" stop-color="#007DFA"/>
</linearGradient>
<linearGradient id="paint2_linear_1_7" x1="1842.62" y1="292.53" x2="5614.88" y2="7149.5" gradientUnits="userSpaceOnUse">
<stop stop-color="#FF52C1"/>
<stop offset="1" stop-color="#9952FF"/>
</linearGradient>
<linearGradient id="paint3_linear_1_7" x1="810.105" y1="-235.988" x2="2066.55" y2="2676.66" gradientUnits="userSpaceOnUse">
<stop stop-color="#FAD961"/>
<stop offset="1" stop-color="#FF52C1"/>
</linearGradient>
<linearGradient id="paint4_linear_1_7" x1="810.105" y1="-141.496" x2="2066.55" y2="2771.15" gradientUnits="userSpaceOnUse">
<stop stop-color="#FAD961"/>
<stop offset="1" stop-color="#FF52C1"/>
</linearGradient>
<linearGradient id="paint5_linear_1_7" x1="1533.31" y1="254.87" x2="1533.31" y2="2309.07" gradientUnits="userSpaceOnUse">
<stop stop-color="#00C7FA"/>
<stop offset="1" stop-color="#007DFA"/>
</linearGradient>
<linearGradient id="paint6_linear_1_7" x1="1533.31" y1="349.361" x2="1533.31" y2="2403.56" gradientUnits="userSpaceOnUse">
<stop stop-color="#00C7FA"/>
<stop offset="1" stop-color="#007DFA"/>
</linearGradient>
<linearGradient id="paint7_linear_1_7" x1="1101.16" y1="286.367" x2="2358.56" y2="2572.06" gradientUnits="userSpaceOnUse">
<stop stop-color="#FF52C1"/>
<stop offset="1" stop-color="#9952FF"/>
</linearGradient>
<linearGradient id="paint8_linear_1_7" x1="1101.16" y1="380.858" x2="2358.56" y2="2666.55" gradientUnits="userSpaceOnUse">
<stop stop-color="#FF52C1"/>
<stop offset="1" stop-color="#9952FF"/>
</linearGradient>
<linearGradient id="paint9_linear_1_7" x1="810.105" y1="-47.0042" x2="2066.55" y2="2865.64" gradientUnits="userSpaceOnUse">
<stop stop-color="#FAD961"/>
<stop offset="1" stop-color="#FF52C1"/>
</linearGradient>
<linearGradient id="paint10_linear_1_7" x1="1533.31" y1="443.853" x2="1533.31" y2="2498.05" gradientUnits="userSpaceOnUse">
<stop stop-color="#00C7FA"/>
<stop offset="1" stop-color="#007DFA"/>
</linearGradient>
</defs>
</svg>
